<?xml version="1.0" encoding="UTF-8"?>
<svg xmlns="http://www.w3.org/2000/svg" xmlns:se="https://standardebooks.org/vocab/1.0" version="1.1" viewBox="0 0 1400 770" se:generated-from="5a5bab1b0ee7004a828a828615718666388d3029">
	<path d="M 238.45857,66.843806 256.79829,66.843806 256.79829,128.60001 274.38945,128.60001 274.38945,66.843806 292.72917,66.843806 292.72917,51.404756 238.45857,51.404756 238.45857,66.843806 Z"/>
	<path d="M 321.65531,97.628336 346.54493,97.628336 346.54493,128.60001 364.13609,128.60001 364.13609,51.404756 346.54493,51.404756 346.54493,82.189286 321.65531,82.189286 321.65531,51.404756 304.06415,51.404756 304.06415,128.60001 321.65531,128.60001 321.65531,97.628336 Z"/>
	<path d="M 424.50321,51.404756 380.33817,51.404756 380.33817,128.60001 424.50321,128.60001 424.50321,113.16096 397.92933,113.16096 397.92933,97.628336 423.38037,97.628336 423.38037,82.189286 397.92933,82.189286 397.92933,66.843806 424.50321,66.843806 424.50321,51.404756 Z"/>
	<path d="M 514.36667,51.404756 470.20163,51.404756 470.20163,128.60001 514.36667,128.60001 514.36667,113.16096 487.79279,113.16096 487.79279,97.628336 513.24383,97.628336 513.24383,82.189286 487.79279,82.189286 487.79279,66.843806 514.36667,66.843806 514.36667,51.404756 Z"/>
	<path d="M 547.0707,80.692166 547.25784,80.692166 577.9488,128.60001 595.53996,128.60001 595.53996,51.404756 577.9488,51.404756 577.9488,99.312596 577.76166,99.312596 547.0707,51.404756 529.47954,51.404756 529.47954,128.60001 547.0707,128.60001 547.0707,80.692166 Z"/>
	<path d="M 649.9376,112.69311 C 632.25287,112.69311 624.48656,100.34187 624.48656,89.955596 624.48656,79.662896 632.25287,67.311656 649.9376,67.311656 658.92032,67.311656 665.09594,72.083726 665.09594,72.083726 L 672.58154,57.112526 C 672.58154,57.112526 663.9731,50.001206 647.22407,50.001206 625.32869,50.001206 605.39828,67.966646 605.39828,90.142736 605.39828,112.22526 625.42226,130.00356 647.22407,130.00356 663.9731,130.00356 672.58154,122.89224 672.58154,122.89224 L 665.09594,107.92104 C 665.09594,107.92104 658.92032,112.69311 649.9376,112.69311 Z"/>
	<path d="M 701.99453,97.628336 726.88415,97.628336 726.88415,128.60001 744.47531,128.60001 744.47531,51.404756 726.88415,51.404756 726.88415,82.189286 701.99453,82.189286 701.99453,51.404756 684.40337,51.404756 684.40337,128.60001 701.99453,128.60001 701.99453,97.628336 Z"/>
	<path d="M 778.26858,51.404756 760.67742,51.404756 760.67742,128.60001 778.26858,128.60001 778.26858,51.404756 Z"/>
	<path d="M 794.55254,51.404756 794.55254,128.60001 812.1437,128.60001 812.1437,98.096186 835.72334,128.60001 858.08657,128.60001 831.51269,96.692636 C 840.96326,93.698396 847.32602,85.932086 847.32602,74.329406 847.32602,59.171066 836.4719,51.404756 822.15569,51.404756 L 794.55254,51.404756 Z M 812.1437,85.651376 812.1437,65.440256 814.20224,65.440256 C 820.84571,65.440256 828.79916,65.908106 828.79916,75.545816 828.79916,85.183526 820.84571,85.651376 814.20224,85.651376 L 812.1437,85.651376 Z"/>
	<path d="M 884.21438,51.404756 866.62322,51.404756 866.62322,128.60001 884.21438,128.60001 884.21438,51.404756 Z"/>
	<path d="M 900.49834,51.404756 900.49834,128.60001 922.86157,128.60001 C 944.10196,128.60001 961.78669,112.50597 961.78669,89.955596 961.78669,67.498796 944.00839,51.404756 922.86157,51.404756 L 900.49834,51.404756 Z M 918.0895,112.88025 918.0895,67.124516 920.80303,67.124516 C 933.90283,67.124516 942.79198,77.136506 942.79198,90.049166 942.69841,102.96183 933.80926,112.88025 920.80303,112.88025 L 918.0895,112.88025 Z"/>
	<path d="M 992.17043,51.404756 974.57927,51.404756 974.57927,128.60001 992.17043,128.60001 992.17043,51.404756 Z"/>
	<path d="M 1004.9923,89.955596 C 1004.9923,112.50597 1021.0863,130.00356 1043.9174,130.00356 1066.0935,130.00356 1082.749,112.50597 1082.749,89.955596 1082.749,67.405226 1065.345,50.001206 1043.9174,50.001206 1022.677,50.001206 1004.9923,67.405226 1004.9923,89.955596 Z M 1023.987,89.955596 C 1023.987,78.446486 1030.3498,66.937376 1043.9174,66.937376 1057.5786,66.937376 1063.7543,78.446486 1063.7543,89.955596 1063.7543,101.46471 1057.9529,112.97382 1043.9174,112.97382 1029.5076,112.97382 1023.987,101.46471 1023.987,89.955596 Z"/>
	<path d="M 1113.1021,80.692166 1113.2892,80.692166 1143.9802,128.60001 1161.5713,128.60001 1161.5713,51.404756 1143.9802,51.404756 1143.9802,99.312596 1143.793,99.312596 1113.1021,51.404756 1095.5109,51.404756 1095.5109,128.60001 1113.1021,128.60001 1113.1021,80.692166 Z"/>
	<path d="M 525.14576,231.05151 492.0208,231.05151 492.0208,288.95001 525.14576,288.95001 525.14576,277.37031 505.21464,277.37031 505.21464,265.72043 524.3036,265.72043 524.3036,254.14073 505.21464,254.14073 505.21464,242.63121 525.14576,242.63121 525.14576,231.05151 Z"/>
	<path d="M 537.73068,231.05151 537.73068,288.95001 550.92452,288.95001 550.92452,267.47493 558.85486,267.47493 C 570.15384,267.47493 578.64562,260.80783 578.64562,248.87723 578.64562,236.87645 570.15384,231.05151 558.85486,231.05151 L 537.73068,231.05151 Z M 550.92452,256.94793 550.92452,241.57851 554.64406,241.57851 C 559.83738,241.57851 564.74998,243.33301 564.74998,249.29831 564.74998,255.19343 559.83738,256.94793 554.64406,256.94793 L 550.92452,256.94793 Z"/>
	<path d="M 602.6655,231.05151 589.47166,231.05151 589.47166,288.95001 602.6655,288.95001 602.6655,231.05151 Z"/>
	<path d="M 644.74467,277.01941 C 631.48065,277.01941 625.65571,267.75565 625.65571,259.96567 625.65571,252.24587 631.48065,242.98211 644.74467,242.98211 651.48195,242.98211 656.11383,246.56129 656.11383,246.56129 L 661.72823,235.33249 C 661.72823,235.33249 655.27167,229.99881 642.70945,229.99881 626.28733,229.99881 611.33899,243.47337 611.33899,260.10603 611.33899,276.66851 626.35751,290.00271 642.70945,290.00271 655.27167,290.00271 661.72823,284.66903 661.72823,284.66903 L 656.11383,273.44023 C 656.11383,273.44023 651.48195,277.01941 644.74467,277.01941 Z"/>
	<path d="M 668.19543,242.63121 681.95071,242.63121 681.95071,288.95001 695.14455,288.95001 695.14455,242.63121 708.89983,242.63121 708.89983,231.05151 668.19543,231.05151 668.19543,242.63121 Z"/>
	<path d="M 751.77619,231.05151 718.65123,231.05151 718.65123,288.95001 751.77619,288.95001 751.77619,277.37031 731.84507,277.37031 731.84507,265.72043 750.93403,265.72043 750.93403,254.14073 731.84507,254.14073 731.84507,242.63121 751.77619,242.63121 751.77619,231.05151 Z"/>
	<path d="M 760.71177,242.63121 774.46705,242.63121 774.46705,288.95001 787.66089,288.95001 787.66089,242.63121 801.41617,242.63121 801.41617,231.05151 760.71177,231.05151 760.71177,242.63121 Z"/>
	<path d="M 855.66168,231.05151 842.46784,231.05151 842.46784,264.52737 C 842.46784,274.21221 839.52028,277.01941 833.06372,277.01941 826.60716,277.01941 823.6596,274.21221 823.6596,264.52737 L 823.6596,231.05151 810.46576,231.05151 810.46576,268.38727 C 810.46576,282.70399 818.32592,290.00271 833.06372,290.00271 847.80152,290.00271 855.66168,282.70399 855.66168,268.38727 L 855.66168,231.05151 Z"/>
	<path d="M 888.35537,229.99881 C 879.02143,229.99881 869.47694,236.87645 869.47694,247.68417 869.47694,253.71965 873.54739,259.12351 880.49521,262.56233 887.37285,266.00115 893.54869,267.89601 893.54869,272.10681 893.54869,277.51067 888.07465,277.79139 885.19727,277.79139 878.74071,277.79139 871.02091,271.26465 871.02091,271.26465 L 864.42398,282.35309 C 864.42398,282.35309 872.63505,290.00271 886.17979,290.00271 897.47877,290.00271 908.00577,285.16029 908.00577,271.33483 908.00577,263.75539 900.91759,258.28135 894.46103,255.54433 887.86411,252.73713 882.39007,250.42119 882.39007,247.19291 882.39007,244.03481 884.77619,241.99959 889.26771,241.99959 895.23301,241.99959 900.98777,245.99985 900.98777,245.99985 L 906.32145,235.47285 C 906.32145,235.47285 898.88237,229.99881 888.35537,229.99881 Z"/>
	<path d="M 452.50908,500.70319 430.42704,500.70319 430.42704,539.29999 452.50908,539.29999 452.50908,531.58063 439.22243,531.58063 439.22243,523.81448 451.94768,523.81448 451.94768,516.09512 439.22243,516.09512 439.22243,508.42255 452.50908,508.42255 452.50908,500.70319 Z"/>
	<path d="M 471.3608,500.70319 462.56541,500.70319 462.56541,539.29999 484.64746,539.29999 484.64746,531.58063 471.3608,531.58063 471.3608,500.70319 Z"/>
	<path d="M 502.76818,500.70319 493.97278,500.70319 493.97278,539.29999 502.76818,539.29999 502.76818,500.70319 Z"/>
	<path d="M 545.83135,500.70319 514.06501,500.70319 514.06501,508.42255 530.43941,508.42255 511.35154,539.29999 544.56818,539.29999 544.56818,531.58063 526.69669,531.58063 545.83135,500.70319 Z"/>
	<path d="M 574.01428,500.70319 565.87386,500.70319 550.29479,539.29999 559.74516,539.29999 562.59898,531.58063 577.28916,531.58063 580.14298,539.29999 589.59335,539.29999 574.01428,500.70319 Z M 574.29498,523.86127 565.59316,523.86127 569.89729,512.63311 569.99086,512.63311 574.29498,523.86127 Z"/>
	<path d="M 596.05316,500.70319 596.05316,539.29999 610.69656,539.29999 C 618.69662,539.29999 623.32824,534.90229 623.32824,528.53967 623.32824,522.3174 619.913,519.65071 615.09425,518.8086 618.36913,517.12437 619.913,514.08341 619.913,510.52783 619.913,503.18274 614.6732,500.70319 608.02987,500.70319 L 596.05316,500.70319 Z M 604.84856,515.81442 604.84856,507.48687 605.55032,507.48687 C 609.3866,507.48687 611.39832,508.65647 611.39832,511.41672 611.39832,514.64482 609.33982,515.81442 605.55032,515.81442 L 604.84856,515.81442 Z M 604.84856,532.51631 604.84856,523.39343 607.60881,523.39343 C 611.77259,523.39343 614.065,524.6566 614.065,528.21218 614.065,531.25314 611.77259,532.51631 607.60881,532.51631 L 604.84856,532.51631 Z"/>
	<path d="M 654.29409,500.70319 632.21204,500.70319 632.21204,539.29999 654.29409,539.29999 654.29409,531.58063 641.00743,531.58063 641.00743,523.81448 653.73268,523.81448 653.73268,516.09512 641.00743,516.09512 641.00743,508.42255 654.29409,508.42255 654.29409,500.70319 Z"/>
	<path d="M 661.91764,508.42255 671.0873,508.42255 671.0873,539.29999 679.88269,539.29999 679.88269,508.42255 689.05236,508.42255 689.05236,500.70319 661.91764,500.70319 661.91764,508.42255 Z"/>
	<path d="M 706.01518,523.81448 718.45973,523.81448 718.45973,539.29999 727.25512,539.29999 727.25512,500.70319 718.45973,500.70319 718.45973,516.09512 706.01518,516.09512 706.01518,500.70319 697.21979,500.70319 697.21979,539.29999 706.01518,539.29999 706.01518,523.81448 Z"/>
	<path d="M 774.7247,531.34671 C 765.88253,531.34671 761.99945,525.17122 761.99945,519.9782 761.99945,514.83196 765.88253,508.65647 774.7247,508.65647 779.21597,508.65647 782.30371,511.04245 782.30371,511.04245 L 786.04643,503.55701 C 786.04643,503.55701 781.7423,500.00143 773.36797,500.00143 762.42051,500.00143 752.45552,508.98396 752.45552,520.07176 752.45552,531.11279 762.46729,540.00175 773.36797,540.00175 781.7423,540.00175 786.04643,536.44616 786.04643,536.44616 L 782.30371,528.96072 C 782.30371,528.96072 779.21597,531.34671 774.7247,531.34671 Z"/>
	<path d="M 814.05977,500.70319 805.91936,500.70319 790.34029,539.29999 799.79065,539.29999 802.64448,531.58063 817.33465,531.58063 820.18848,539.29999 829.63885,539.29999 814.05977,500.70319 Z M 814.34048,523.86127 805.63865,523.86127 809.94278,512.63311 810.03635,512.63311 814.34048,523.86127 Z"/>
	<path d="M 836.09867,500.70319 836.09867,539.29999 844.89406,539.29999 844.89406,524.0484 856.68363,539.29999 867.865,539.29999 854.57835,523.34664 C 859.30353,521.84956 862.48484,517.96648 862.48484,512.16527 862.48484,504.58626 857.0579,500.70319 849.89995,500.70319 L 836.09867,500.70319 Z M 844.89406,517.82613 844.89406,507.72079 845.92331,507.72079 C 849.24497,507.72079 853.22161,507.95471 853.22161,512.77346 853.22161,517.59221 849.24497,517.82613 845.92331,517.82613 L 844.89406,517.82613 Z"/>
	<path d="M 870.37302,508.42255 879.54268,508.42255 879.54268,539.29999 888.33808,539.29999 888.33808,508.42255 897.50774,508.42255 897.50774,500.70319 870.37302,500.70319 870.37302,508.42255 Z"/>
	<path d="M 927.75722,500.70319 905.67517,500.70319 905.67517,539.29999 927.75722,539.29999 927.75722,531.58063 914.47057,531.58063 914.47057,523.81448 927.19581,523.81448 927.19581,516.09512 914.47057,516.09512 914.47057,508.42255 927.75722,508.42255 927.75722,500.70319 Z"/>
	<path d="M 937.81354,500.70319 937.81354,539.29999 946.60893,539.29999 946.60893,524.0484 958.3985,539.29999 969.57988,539.29999 956.29322,523.34664 C 961.0184,521.84956 964.19972,517.96648 964.19972,512.16527 964.19972,504.58626 958.77277,500.70319 951.61482,500.70319 L 937.81354,500.70319 Z M 946.60893,517.82613 946.60893,507.72079 947.63818,507.72079 C 950.95984,507.72079 954.93648,507.95471 954.93648,512.77346 954.93648,517.59221 950.95984,517.82613 947.63818,517.82613 L 946.60893,517.82613 Z"/>
	<path d="M 594.74274,455.60187 C 594.74274,456.7921 597.25071,455.85692 597.25071,456.74959 597.25071,457.8973 595.46538,464.7836 595.46538,468.69434 595.46538,472.00996 597.03817,472.69009 598.18589,472.69009 600.82139,472.69009 604.43457,469.79954 604.43457,468.69434 604.43457,468.09922 604.0945,468.09922 603.96698,468.09922 603.28685,468.09922 602.30917,469.96958 599.97123,469.96958 599.80119,469.96958 598.2284,469.88456 598.2284,467.63164 598.2284,466.95151 599.20608,461.42547 599.58865,458.78997 599.8437,457.04714 599.71618,456.282 600.94891,456.282 601.88409,456.282 603.71193,456.49454 604.39206,456.49454 605.1572,456.49454 605.41225,456.23949 605.41225,455.26181 605.41225,454.75171 605.19971,454.45416 604.30704,454.45416 603.83945,454.45416 603.49939,454.49666 601.84158,454.49666 600.43881,454.49666 600.3538,454.45416 600.3538,454.19911 600.3538,453.56149 601.11894,451.56361 601.11894,451.01101 601.11894,450.62844 600.9064,450.50091 600.69386,450.50091 600.01373,450.50091 599.92872,451.05352 598.2284,452.83885 596.35805,454.79422 594.74274,454.75171 594.74274,455.60187 Z"/>
	<path d="M 606.85022,459.59762 C 606.85022,460.19274 607.19028,460.32026 607.36031,460.32026 607.57285,460.32026 607.70038,460.19274 607.8279,460.06521 608.08295,459.76766 608.42301,457.21718 610.16584,457.21718 610.93098,457.21718 611.61111,457.98232 611.61111,460.10772 611.61111,463.29582 609.78327,469.5445 609.78327,471.24482 609.78327,472.26501 610.63343,472.35002 611.05851,472.35002 L 611.27105,472.35002 C 612.80134,472.35002 612.71632,472.35002 613.6515,465.12366 L 613.86404,463.7209 C 614.07658,461.93556 615.13928,456.36702 617.05214,456.36702 618.58242,456.36702 618.41239,458.15235 619.34757,458.15235 620.11271,458.15235 620.19773,456.8346 620.28274,456.53705 620.41027,456.06946 620.75033,455.51686 620.75033,454.96425 620.75033,454.36914 620.28274,453.6465 619.17754,453.6465 616.03194,453.6465 613.90654,458.02483 613.60899,458.02483 613.52397,458.02483 613.48146,457.98232 612.41876,455.2193 612.16372,454.53917 611.73864,453.73152 610.84597,453.73152 610.4634,453.73152 606.85022,454.75171 606.85022,459.59762 Z"/>
	<path d="M 620.44148,467.33408 C 620.44148,470.0971 620.95158,472.81761 624.98984,472.81761 629.0281,472.81761 632.55626,467.71665 632.7688,467.71665 633.06636,467.71665 632.68379,472.47755 635.4043,472.47755 636.55202,472.47755 638.46488,470.52218 639.52758,468.99189 640.08018,468.22675 640.29272,467.58913 640.29272,467.16405 640.29272,466.99402 640.25021,466.69646 639.91015,466.69646 639.1025,466.69646 638.20983,469.45948 636.80706,469.45948 635.99941,469.45948 635.36179,468.05672 635.36179,466.95151 635.36179,465.3362 635.78687,463.38084 636.12694,461.51048 636.467,459.59762 636.72205,457.64226 637.10462,456.06946 637.40218,454.83673 637.95478,453.81654 637.95478,453.13641 637.95478,452.66882 637.74224,452.49879 637.48719,452.49879 636.63703,452.49879 636.12694,454.58168 635.27678,454.58168 633.87401,454.58168 632.98134,454.11409 631.6636,454.11409 630.55839,454.11409 629.70823,454.32663 628.56051,454.87924 626.30759,455.94194 624.35222,457.98232 622.82193,460.40528 621.50418,462.53068 620.44148,464.95363 620.44148,467.33408 Z M 623.41704,467.07903 C 623.41704,466.31389 623.50206,465.54874 623.62958,464.7836 624.01216,462.57318 625.03235,460.66032 626.26508,458.61994 627.54032,456.45203 629.79324,455.17679 631.53607,455.17679 632.42874,455.17679 634.3416,455.47435 634.3416,456.66457 634.3416,456.7921 633.19388,464.61357 632.17369,466.65395 631.79112,467.4191 629.79324,470.47967 626.73267,470.47967 624.94733,470.47967 623.41704,469.20443 623.41704,467.07903 Z"/>
	<path d="M 641.68751,458.53492 C 641.68751,459.00251 641.77253,459.34258 642.07008,459.34258 643.00526,459.34258 643.47285,456.96213 644.7906,456.96213 645.21568,456.96213 645.76828,457.81229 645.76828,459.30007 645.76828,462.57318 643.89793,469.16192 643.89793,470.94726 643.89793,472.17999 644.23799,472.26501 645.38571,472.26501 646.49092,472.26501 646.83098,472.09498 646.9585,471.1598 647.04352,470.56469 646.74596,471.07478 647.80866,465.3362 648.82886,459.85267 648.31876,460.23524 650.1466,457.64226 651.12429,456.23949 651.93194,455.7719 652.90962,455.7719 655.67264,455.7719 655.88518,458.57743 655.88518,459.25756 655.88518,460.83036 654.99252,466.52643 654.99252,469.75704 654.99252,471.24482 655.71515,472.43504 656.56531,472.43504 658.43566,472.43504 662.17637,469.45948 662.17637,467.80167 662.17637,467.54662 662.09135,467.29157 661.7938,467.29157 661.15618,467.29157 660.98614,467.80167 660.47605,468.43929 660.47605,468.43929 659.49836,469.37446 658.77573,469.37446 658.30814,469.37446 657.96808,469.0344 657.96808,467.84418 657.96808,466.3989 658.69071,461.89306 658.69071,458.9175 658.69071,456.23949 658.0956,453.604 655.12004,453.604 653.3347,453.604 651.08178,455.13428 649.93406,456.02695 648.36127,457.21718 648.06371,458.15235 647.80866,458.15235 647.42609,458.15235 648.31876,453.68901 645.8533,453.68901 644.23799,453.68901 641.68751,456.87711 641.68751,458.53492 Z"/>
	<path d="M 663.63825,469.88456 C 663.63825,472.13748 666.69882,472.69009 668.35663,472.69009 673.79766,472.69009 674.98788,468.65183 674.98788,467.12154 674.98788,464.2735 673.37258,463.08328 672.05483,461.5955 671.03464,460.49029 668.6967,458.74746 668.6967,457.13216 668.6967,455.85692 669.33432,454.87924 670.94962,454.87924 672.60743,454.87924 672.77747,457.25968 674.30775,457.25968 674.52029,457.25968 675.92306,457.13216 675.92306,455.81441 675.92306,454.1566 674.26525,453.604 671.96981,453.604 668.65419,453.604 666.18873,455.55936 666.18873,458.4074 666.18873,460.95788 667.80403,462.06309 669.50435,463.80592 671.03464,465.3362 672.4374,466.56894 672.4374,468.56681 672.4374,469.07691 672.13985,471.28732 669.03676,471.28732 666.44377,471.28732 667.16641,468.35427 664.9985,468.35427 664.48841,468.35427 663.63825,468.56681 663.63825,469.88456 Z"/>
	<path d="M 678.73788,468.5243 C 678.73788,472.52006 679.97062,472.52006 680.82078,472.52006 681.62843,472.52006 683.41376,471.6699 684.51897,470.39466 685.53916,469.20443 686.64437,467.75916 686.64437,467.33408 686.64437,466.909 686.43183,466.65395 686.13428,466.65395 685.02907,466.65395 684.60399,469.67202 682.26605,469.67202 681.71344,469.67202 681.58592,469.45948 681.58592,468.01421 681.58592,466.56894 682.09602,463.89093 682.81865,458.87499 684.17891,449.73577 683.45627,451.30856 685.02907,443.06201 685.15659,442.25436 685.45415,441.70176 685.45415,441.10665 685.45415,440.68157 685.24161,440.42652 684.56148,440.42652 683.45627,440.42652 682.5211,440.8516 679.41801,441.06414 678.86541,441.10665 678.78039,441.44671 678.78039,441.65925 678.78039,442.12684 679.16296,442.25436 680.01312,442.25436 680.52322,442.25436 680.60824,442.21185 681.24586,442.21185 681.88348,442.21185 682.30856,442.55192 682.30856,443.06201 682.30856,443.57211 681.67094,447.39783 680.9483,451.98869 680.52322,454.7092 680.31068,457.72727 679.92811,460.40528 679.84309,461.0854 678.73788,466.10135 678.73788,468.5243 Z"/>
	<path d="M 689.26791,467.33408 C 689.26791,470.0971 689.77801,472.81761 693.81627,472.81761 697.85453,472.81761 701.38269,467.71665 701.59523,467.71665 701.89279,467.71665 701.51021,472.47755 704.23073,472.47755 705.37844,472.47755 707.2913,470.52218 708.354,468.99189 708.90661,468.22675 709.11915,467.58913 709.11915,467.16405 709.11915,466.99402 709.07664,466.69646 708.73657,466.69646 707.92892,466.69646 707.03625,469.45948 705.63349,469.45948 704.82584,469.45948 704.18822,468.05672 704.18822,466.95151 704.18822,465.3362 704.6133,463.38084 704.95336,461.51048 705.29343,459.59762 705.54847,457.64226 705.93105,456.06946 706.2286,454.83673 706.78121,453.81654 706.78121,453.13641 706.78121,452.66882 706.56867,452.49879 706.31362,452.49879 705.46346,452.49879 704.95336,454.58168 704.1032,454.58168 702.70044,454.58168 701.80777,454.11409 700.49002,454.11409 699.38481,454.11409 698.53465,454.32663 697.38694,454.87924 695.13401,455.94194 693.17865,457.98232 691.64836,460.40528 690.33061,462.53068 689.26791,464.95363 689.26791,467.33408 Z M 692.24347,467.07903 C 692.24347,466.31389 692.32849,465.54874 692.45601,464.7836 692.83858,462.57318 693.85877,460.66032 695.09151,458.61994 696.36675,456.45203 698.61967,455.17679 700.3625,455.17679 701.25517,455.17679 703.16803,455.47435 703.16803,456.66457 703.16803,456.7921 702.02031,464.61357 701.00012,466.65395 700.61755,467.4191 698.61967,470.47967 695.55909,470.47967 693.77376,470.47967 692.24347,469.20443 692.24347,467.07903 Z"/>
	<path d="M 711.1416,455.60187 C 711.1416,456.7921 713.64957,455.85692 713.64957,456.74959 713.64957,457.8973 711.86423,464.7836 711.86423,468.69434 711.86423,472.00996 713.43703,472.69009 714.58475,472.69009 717.22024,472.69009 720.83342,469.79954 720.83342,468.69434 720.83342,468.09922 720.49336,468.09922 720.36583,468.09922 719.68571,468.09922 718.70802,469.96958 716.37008,469.96958 716.20005,469.96958 714.62725,469.88456 714.62725,467.63164 714.62725,466.95151 715.60494,461.42547 715.98751,458.78997 716.24256,457.04714 716.11503,456.282 717.34777,456.282 718.28294,456.282 720.11079,456.49454 720.79091,456.49454 721.55606,456.49454 721.81111,456.23949 721.81111,455.26181 721.81111,454.75171 721.59857,454.45416 720.7059,454.45416 720.23831,454.45416 719.89825,454.49666 718.24043,454.49666 716.83767,454.49666 716.75265,454.45416 716.75265,454.19911 716.75265,453.56149 717.5178,451.56361 717.5178,451.01101 717.5178,450.62844 717.30526,450.50091 717.09272,450.50091 716.41259,450.50091 716.32757,451.05352 714.62725,452.83885 712.7569,454.79422 711.1416,454.75171 711.1416,455.60187 Z"/>
	<path d="M 723.39054,465.93132 C 723.39054,469.71453 724.70829,472.69009 730.10681,472.69009 733.805,472.69009 737.5032,469.71453 737.5032,468.73684 737.5032,468.4818 737.33317,468.31176 736.9931,468.31176 736.52552,468.31176 734.8252,470.13961 732.40224,470.13961 728.19395,470.13961 726.28109,468.01421 726.28109,464.82611 726.28109,463.7209 726.40861,463.08328 727.00372,463.08328 730.99948,463.04077 733.29491,462.1056 733.67748,461.93556 734.48513,461.5955 737.80076,459.85267 737.80076,456.7921 737.80076,454.92174 736.10044,453.6465 734.10256,453.6465 731.72211,453.6465 729.76674,454.41165 728.19395,455.89943 725.2609,458.61994 723.39054,462.27563 723.39054,465.93132 Z M 726.8762,461.51048 C 726.8762,460.95788 727.85388,458.23737 729.12912,456.91962 730.23433,455.7719 731.55208,454.92174 732.61478,454.92174 733.33742,454.92174 734.8677,455.30432 734.8677,456.91962 734.8677,459.59762 731.38205,462.36064 727.25877,462.36064 726.96122,462.36064 726.8762,461.80804 726.8762,461.51048 Z"/>
	<path d="M 739.85575,466.86649 C 739.85575,470.05459 741.34353,472.52006 744.95671,472.52006 749.16501,472.52006 751.33291,467.75916 751.71549,467.75916 752.3106,467.75916 751.33291,472.52006 754.30847,472.52006 757.07149,472.52006 759.7495,468.22675 759.7495,467.33408 759.7495,467.16405 759.62197,466.95151 759.28191,466.95151 758.60178,466.95151 757.6241,469.587 755.75375,469.587 754.77606,469.587 754.64854,468.69434 754.64854,467.75916 754.64854,466.48392 755.07362,463.80592 755.54121,460.57531 757.92165,443.18954 758.34673,441.82928 758.34673,440.72407 758.34673,440.3415 758.04918,440.00144 757.66661,440.00144 756.51889,440.00144 756.77394,440.08645 754.39349,440.68157 753.20327,440.97912 751.71549,440.80909 751.71549,441.53173 751.71549,441.82928 751.97053,441.99931 752.39561,441.99931 752.43812,441.99931 753.41581,441.95681 753.88339,441.95681 754.52101,441.95681 755.11613,442.38189 755.11613,443.01951 755.11613,443.31706 753.71336,454.49666 753.58584,454.49666 752.39561,454.49666 751.54545,453.94406 750.44025,453.94406 745.38179,453.94406 739.85575,460.27775 739.85575,466.86649 Z M 742.83131,465.67627 C 742.83131,461.21293 746.31697,454.83673 750.22771,454.83673 751.37542,454.83673 753.07574,455.38933 753.07574,456.53705 753.07574,458.23737 752.43812,465.71878 750.7378,467.84418 749.63259,469.24694 747.97478,470.05459 746.44449,470.05459 743.85151,470.05459 742.83131,468.14173 742.83131,465.67627 Z"/>
	<path d="M 771.05796,469.16192 C 771.05796,471.62739 773.73596,472.7326 776.24393,472.7326 782.83267,472.7326 787.84862,465.12366 787.84862,459.34258 787.84862,456.57956 786.36084,453.94406 783.17274,453.94406 778.28432,453.94406 776.28644,457.8973 775.69133,457.8973 775.60631,457.8973 775.47879,457.55724 775.47879,457.25968 775.47879,454.19911 778.1993,441.53173 778.1993,440.76658 778.1993,440.29899 777.85924,440.00144 777.39165,440.00144 777.1366,440.00144 776.37146,440.25649 774.71365,440.46903 772.75828,440.72407 771.56805,440.68157 771.56805,441.53173 771.56805,442.12684 771.90812,442.12684 772.37571,442.12684 773.01333,442.12684 773.48091,442.04182 774.11853,442.04182 774.96869,442.04182 775.18123,442.33938 775.18123,442.55192 775.18123,443.57211 774.92619,445.05989 774.54361,446.88773 773.90599,450.03332 773.3959,454.1566 772.63075,458.57743 772.03564,462.02058 771.05796,466.44141 771.05796,469.16192 Z M 773.86349,468.65183 C 773.86349,468.22675 774.33107,463.67839 775.56381,460.32026 776.92406,456.62206 779.68708,456.19698 780.70727,456.19698 783.04521,456.19698 784.87306,458.15235 784.87306,460.5328 784.87306,465.42122 780.96232,471.54237 777.1366,471.54237 774.50111,471.54237 773.86349,470.0971 773.86349,468.65183 Z"/>
	<path d="M 789.4938,477.49349 C 789.4938,479.44886 791.19412,480.00146 793.02196,480.00146 797.01772,480.00146 799.73823,475.15555 801.7361,470.0971 804.24408,463.76341 805.26427,457.8973 805.26427,455.98444 805.26427,454.6667 804.54163,453.73152 803.60646,453.73152 802.58626,453.73152 802.16118,454.53917 802.16118,455.30432 802.16118,456.45203 803.22388,457.30219 803.22388,458.53492 803.22388,461.38296 802.28871,465.93132 801.6936,465.93132 801.22601,465.93132 797.18775,453.85904 793.06447,453.85904 790.47148,453.85904 789.62132,457.55724 789.62132,459.34258 789.62132,460.06521 789.79136,460.27775 790.0464,460.27775 791.32164,460.27775 790.42898,457.08965 792.89444,457.08965 795.14736,457.08965 799.82324,468.05672 799.82324,470.43716 799.82324,472.05247 797.01772,477.49349 794.55225,477.49349 792.59688,477.49349 792.55438,476.09073 790.85406,476.09073 790.13142,476.09073 789.4938,476.77086 789.4938,477.49349 Z"/>
	<path d="M 530.71791,697.68578 512.89321,697.68578 512.89321,704.46946 521.78217,704.46946 C 521.78217,709.19464 517.61839,711.90812 513.40783,711.90812 507.98089,711.90812 503.58319,706.57474 503.58319,700.02498 503.58319,693.33487 507.98089,687.95471 513.40783,687.95471 516.82307,687.95471 519.77046,689.31144 522.01609,692.91381 L 527.77052,686.59797 C 524.40207,682.52776 519.67689,680.00143 512.89321,680.00143 502.03932,680.00143 494.08604,688.93717 494.08604,700.02498 494.08604,711.066 502.50716,720.00175 512.89321,720.00175 520.47222,720.00175 528.61263,715.83797 530.71791,706.06012 L 530.71791,697.68578 Z"/>
	<path d="M 561.6421,680.70319 539.56005,680.70319 539.56005,719.29999 561.6421,719.29999 561.6421,711.58063 548.35544,711.58063 548.35544,703.81448 561.08069,703.81448 561.08069,696.09512 548.35544,696.09512 548.35544,688.42255 561.6421,688.42255 561.6421,680.70319 Z"/>
	<path d="M 569.96742,699.9782 C 569.96742,711.25314 578.01427,720.00175 589.42956,720.00175 600.51737,720.00175 608.84492,711.25314 608.84492,699.9782 608.84492,688.70325 600.1431,680.00143 589.42956,680.00143 578.8096,680.00143 569.96742,688.70325 569.96742,699.9782 Z M 579.46457,699.9782 C 579.46457,694.22376 582.64588,688.46933 589.42956,688.46933 596.26003,688.46933 599.34777,694.22376 599.34777,699.9782 599.34777,705.73263 596.44716,711.48706 589.42956,711.48706 582.22483,711.48706 579.46457,705.73263 579.46457,699.9782 Z"/>
	<path d="M 617.7258,680.70319 617.7258,719.29999 626.52119,719.29999 626.52119,704.0484 638.31076,719.29999 649.49214,719.29999 636.20548,703.34664 C 640.93067,701.84956 644.11198,697.96648 644.11198,692.16527 644.11198,684.58626 638.68503,680.70319 631.52708,680.70319 L 617.7258,680.70319 Z M 626.52119,697.82613 626.52119,687.72079 627.55044,687.72079 C 630.87211,687.72079 634.84875,687.95471 634.84875,692.77346 634.84875,697.59221 630.87211,697.82613 627.55044,697.82613 L 626.52119,697.82613 Z"/>
	<path d="M 691.16129,697.68578 673.33658,697.68578 673.33658,704.46946 682.22554,704.46946 C 682.22554,709.19464 678.06177,711.90812 673.85121,711.90812 668.42426,711.90812 664.02657,706.57474 664.02657,700.02498 664.02657,693.33487 668.42426,687.95471 673.85121,687.95471 677.26644,687.95471 680.21383,689.31144 682.45946,692.91381 L 688.2139,686.59797 C 684.84545,682.52776 680.12026,680.00143 673.33658,680.00143 662.4827,680.00143 654.52942,688.93717 654.52942,700.02498 654.52942,711.066 662.95054,720.00175 673.33658,720.00175 680.91559,720.00175 689.05601,715.83797 691.16129,706.06012 L 691.16129,697.68578 Z"/>
	<path d="M 722.08547,680.70319 700.00342,680.70319 700.00342,719.29999 722.08547,719.29999 722.08547,711.58063 708.79881,711.58063 708.79881,703.81448 721.52406,703.81448 721.52406,696.09512 708.79881,696.09512 708.79881,688.42255 722.08547,688.42255 722.08547,680.70319 Z"/>
	<path d="M 758.72969,680.70319 749.9343,680.70319 749.9343,719.29999 772.01635,719.29999 772.01635,711.58063 758.72969,711.58063 758.72969,680.70319 Z"/>
	<path d="M 779.61067,699.9782 C 779.61067,711.25314 787.65752,720.00175 799.07281,720.00175 810.16062,720.00175 818.48817,711.25314 818.48817,699.9782 818.48817,688.70325 809.78635,680.00143 799.07281,680.00143 788.45285,680.00143 779.61067,688.70325 779.61067,699.9782 Z M 789.10782,699.9782 C 789.10782,694.22376 792.28913,688.46933 799.07281,688.46933 805.90328,688.46933 808.99102,694.22376 808.99102,699.9782 808.99102,705.73263 806.09041,711.48706 799.07281,711.48706 791.86808,711.48706 789.10782,705.73263 789.10782,699.9782 Z"/>
	<path d="M 836.16444,695.34658 836.25801,695.34658 851.60316,719.29999 860.39856,719.29999 860.39856,680.70319 851.60316,680.70319 851.60316,704.6566 851.5096,704.6566 836.16444,680.70319 827.36905,680.70319 827.36905,719.29999 836.16444,719.29999 836.16444,695.34658 Z"/>
	<path d="M 905.92153,697.68578 888.09682,697.68578 888.09682,704.46946 896.98578,704.46946 C 896.98578,709.19464 892.82201,711.90812 888.61145,711.90812 883.1845,711.90812 878.78681,706.57474 878.78681,700.02498 878.78681,693.33487 883.1845,687.95471 888.61145,687.95471 892.02668,687.95471 894.97407,689.31144 897.2197,692.91381 L 902.97414,686.59797 C 899.60569,682.52776 894.8805,680.00143 888.09682,680.00143 877.24294,680.00143 869.28966,688.93717 869.28966,700.02498 869.28966,711.066 877.71078,720.00175 888.09682,720.00175 895.67583,720.00175 903.81625,715.83797 905.92153,706.06012 L 905.92153,697.68578 Z"/>
	<path d="M 576.74017,635.34682 C 576.74017,635.7719 577.08024,635.85692 577.33529,635.85692 577.67535,635.85692 578.35548,635.89943 579.24815,635.89943 580.01329,635.89943 580.26834,636.06946 580.26834,636.7921 580.26834,639.21505 578.35548,645.8463 578.35548,649.07691 578.35548,650.90475 578.65303,652.60507 579.92827,652.60507 581.50107,652.60507 583.83901,650.0971 583.83901,650.0971 584.3066,649.587 585.07174,648.14173 585.07174,647.63164 585.07174,647.33408 584.90171,647.16405 584.64666,647.16405 584.05155,647.16405 583.45644,649.37446 582.01117,649.37446 581.58609,649.37446 581.16101,648.82186 581.16101,648.22675 581.16101,647.71665 581.16101,647.80167 582.43625,639.76766 582.77631,637.59975 583.58396,635.94194 583.58396,634.83673 583.58396,634.53917 583.28641,634.36914 582.98885,634.36914 580.56589,634.36914 579.84326,634.75171 578.14294,634.75171 L 577.71786,634.75171 C 577.25027,634.75171 576.74017,634.79422 576.74017,635.34682 Z M 581.24602,626.97275 C 581.24602,627.39783 582.39374,629.22567 583.15888,629.22567 583.54145,629.22567 585.02923,627.82291 585.02923,626.97275 585.02923,626.20761 584.22158,624.71983 583.37142,624.71983 582.60628,624.71983 581.24602,626.59018 581.24602,626.97275 Z"/>
	<path d="M 587.53721,638.53492 C 587.53721,639.00251 587.62222,639.34258 587.91978,639.34258 588.85495,639.34258 589.32254,636.96213 590.64029,636.96213 591.06537,636.96213 591.61797,637.81229 591.61797,639.30007 591.61797,642.57318 589.74762,649.16192 589.74762,650.94726 589.74762,652.17999 590.08769,652.26501 591.2354,652.26501 592.34061,652.26501 592.68067,652.09498 592.8082,651.1598 592.89321,650.56469 592.59566,651.07478 593.65836,645.3362 594.67855,639.85267 594.16845,640.23524 595.9963,637.64226 596.97398,636.23949 597.78163,635.7719 598.75932,635.7719 601.52234,635.7719 601.73488,638.57743 601.73488,639.25756 601.73488,640.83036 600.84221,646.52643 600.84221,649.75704 600.84221,651.24482 601.56485,652.43504 602.41501,652.43504 604.28536,652.43504 608.02606,649.45948 608.02606,647.80167 608.02606,647.54662 607.94105,647.29157 607.64349,647.29157 607.00587,647.29157 606.83584,647.80167 606.32574,648.43929 606.32574,648.43929 605.34806,649.37446 604.62542,649.37446 604.15783,649.37446 603.81777,649.0344 603.81777,647.84418 603.81777,646.3989 604.54041,641.89306 604.54041,638.9175 604.54041,636.23949 603.94529,633.604 600.96973,633.604 599.1844,633.604 596.93147,635.13428 595.78376,636.02695 594.21096,637.21718 593.91341,638.15235 593.65836,638.15235 593.27579,638.15235 594.16845,633.68901 591.70299,633.68901 590.08769,633.68901 587.53721,636.87711 587.53721,638.53492 Z"/>
	<path d="M 610.08305,635.60187 C 610.08305,636.7921 612.59102,635.85692 612.59102,636.74959 612.59102,637.8973 610.80569,644.7836 610.80569,648.69434 610.80569,652.00996 612.37848,652.69009 613.5262,652.69009 616.16169,652.69009 619.77487,649.79954 619.77487,648.69434 619.77487,648.09922 619.43481,648.09922 619.30729,648.09922 618.62716,648.09922 617.64947,649.96958 615.31153,649.96958 615.1415,649.96958 613.56871,649.88456 613.56871,647.63164 613.56871,646.95151 614.54639,641.42547 614.92896,638.78997 615.18401,637.04714 615.05649,636.282 616.28922,636.282 617.22439,636.282 619.05224,636.49454 619.73237,636.49454 620.49751,636.49454 620.75256,636.23949 620.75256,635.26181 620.75256,634.75171 620.54002,634.45416 619.64735,634.45416 619.17976,634.45416 618.8397,634.49666 617.18189,634.49666 615.77912,634.49666 615.69411,634.45416 615.69411,634.19911 615.69411,633.56149 616.45925,631.56361 616.45925,631.01101 616.45925,630.62844 616.24671,630.50091 616.03417,630.50091 615.35404,630.50091 615.26903,631.05352 613.56871,632.83885 611.69835,634.79422 610.08305,634.75171 610.08305,635.60187 Z"/>
	<path d="M 622.19052,639.59762 C 622.19052,640.19274 622.53059,640.32026 622.70062,640.32026 622.91316,640.32026 623.04068,640.19274 623.16821,640.06521 623.42325,639.76766 623.76332,637.21718 625.50615,637.21718 626.27129,637.21718 626.95142,637.98232 626.95142,640.10772 626.95142,643.29582 625.12357,649.5445 625.12357,651.24482 625.12357,652.26501 625.97373,652.35002 626.39881,652.35002 L 626.61135,652.35002 C 628.14164,652.35002 628.05663,652.35002 628.9918,645.12366 L 629.20434,643.7209 C 629.41688,641.93556 630.47958,636.36702 632.39244,636.36702 633.92273,636.36702 633.7527,638.15235 634.68787,638.15235 635.45302,638.15235 635.53803,636.8346 635.62305,636.53705 635.75057,636.06946 636.09064,635.51686 636.09064,634.96425 636.09064,634.36914 635.62305,633.6465 634.51784,633.6465 631.37225,633.6465 629.24685,638.02483 628.94929,638.02483 628.86428,638.02483 628.82177,637.98232 627.75907,635.2193 627.50402,634.53917 627.07894,633.73152 626.18627,633.73152 625.8037,633.73152 622.19052,634.75171 622.19052,639.59762 Z"/>
	<path d="M 635.78179,644.99614 C 635.78179,650.18212 638.79986,652.60507 642.28552,652.60507 648.53419,652.60507 652.01985,646.52643 652.01985,641.21293 652.01985,637.21718 650.06448,633.68901 645.81368,633.68901 639.35246,633.68901 635.78179,639.72515 635.78179,644.99614 Z M 639.05491,645.03865 C 639.05491,643.29582 639.47999,641.76553 639.90507,640.27775 640.88275,636.8346 643.17818,634.96425 645.21857,634.96425 647.17394,634.96425 648.87426,636.70708 648.87426,640.70283 648.87426,644.231 647.30146,651.32983 642.7531,651.32983 640.75523,651.32983 639.05491,649.33196 639.05491,645.03865 Z"/>
	<path d="M 654.07352,646.86649 C 654.07352,650.05459 655.5613,652.52006 659.17448,652.52006 663.38277,652.52006 665.55068,647.75916 665.93325,647.75916 666.52836,647.75916 665.55068,652.52006 668.52624,652.52006 671.28926,652.52006 673.96726,648.22675 673.96726,647.33408 673.96726,647.16405 673.83974,646.95151 673.49968,646.95151 672.81955,646.95151 671.84186,649.587 669.97151,649.587 668.99383,649.587 668.8663,648.69434 668.8663,647.75916 668.8663,646.48392 669.29138,643.80592 669.75897,640.57531 672.13942,623.18954 672.5645,621.82928 672.5645,620.72407 672.5645,620.3415 672.26694,620.00144 671.88437,620.00144 670.73666,620.00144 670.9917,620.08645 668.61126,620.68157 667.42103,620.97912 665.93325,620.80909 665.93325,621.53173 665.93325,621.82928 666.1883,621.99931 666.61338,621.99931 666.65589,621.99931 667.63357,621.95681 668.10116,621.95681 668.73878,621.95681 669.33389,622.38189 669.33389,623.01951 669.33389,623.31706 667.93113,634.49666 667.8036,634.49666 666.61338,634.49666 665.76322,633.94406 664.65801,633.94406 659.59956,633.94406 654.07352,640.27775 654.07352,646.86649 Z M 657.04908,645.67627 C 657.04908,641.21293 660.53474,634.83673 664.44547,634.83673 665.59319,634.83673 667.29351,635.38933 667.29351,636.53705 667.29351,638.23737 666.65589,645.71878 664.95557,647.84418 663.85036,649.24694 662.19255,650.05459 660.66226,650.05459 658.06927,650.05459 657.04908,648.14173 657.04908,645.67627 Z"/>
	<path d="M 674.79085,639.68264 C 674.79085,639.9802 674.96088,640.23524 675.21593,640.23524 675.42847,640.23524 675.68352,640.06521 675.85355,639.64013 676.44866,638.27988 677.38384,637.17467 677.76641,637.17467 678.31901,637.17467 678.61657,637.59975 678.61657,638.06734 678.61657,640.66032 676.70371,645.3362 676.70371,649.92707 676.70371,651.1598 677.00127,652.64758 678.14898,652.64758 681.25206,652.64758 684.39766,648.77935 686.31052,646.05884 687.58576,644.2735 687.7983,643.33833 688.05334,643.33833 688.18087,643.33833 688.26588,643.50836 688.26588,643.80592 688.26588,644.18849 687.50074,647.54662 687.50074,650.26713 687.50074,651.58488 687.8408,652.56256 688.77598,652.56256 692.77173,652.56256 695.40723,648.22675 695.40723,647.20656 695.40723,646.82398 695.36472,646.31389 694.81212,646.31389 693.91945,646.31389 693.74942,649.45948 691.15643,649.45948 690.77386,649.45948 690.22125,649.37446 690.22125,648.43929 690.22125,646.27138 692.81424,635.98444 692.81424,634.83673 692.81424,634.19911 692.0916,633.90155 691.41148,633.90155 690.9864,633.90155 690.30627,634.02908 690.17874,634.58168 689.20106,638.32238 688.01084,642.23312 685.24782,645.59125 683.24994,647.9717 681.76216,649.96958 680.4019,649.96958 680.10435,649.96958 679.63676,649.5445 679.63676,648.82186 679.63676,645.59125 681.20956,640.83036 681.20956,637.08965 681.20956,636.57956 681.12454,633.98657 679.59425,633.98657 676.74622,633.98657 674.79085,637.8973 674.79085,639.68264 Z"/>
	<path d="M 697.38518,645.8463 C 697.38518,651.54237 700.70081,652.69009 703.80389,652.69009 708.52228,652.69009 711.54035,649.07691 711.54035,648.4818 711.54035,648.22675 711.32781,647.92919 710.98774,647.92919 710.2226,647.92919 708.77733,650.22462 705.29167,650.22462 701.97605,650.22462 700.27573,648.05672 700.27573,643.7209 700.27573,639.85267 702.57116,637.25968 703.08125,636.7921 704.22897,635.7719 705.4617,635.30432 705.84427,635.30432 708.81983,635.30432 709.20241,638.36489 711.03025,638.36489 711.79539,638.36489 712.43301,637.55724 712.43301,636.70708 712.43301,634.28412 708.60729,633.6465 708.18221,633.6465 702.14608,633.6465 697.38518,640.0227 697.38518,645.8463 Z"/>
	<path d="M 715.02468,635.60187 C 715.02468,636.7921 717.53265,635.85692 717.53265,636.74959 717.53265,637.8973 715.74731,644.7836 715.74731,648.69434 715.74731,652.00996 717.32011,652.69009 718.46783,652.69009 721.10332,652.69009 724.7165,649.79954 724.7165,648.69434 724.7165,648.09922 724.37644,648.09922 724.24891,648.09922 723.56879,648.09922 722.5911,649.96958 720.25316,649.96958 720.08313,649.96958 718.51033,649.88456 718.51033,647.63164 718.51033,646.95151 719.48802,641.42547 719.87059,638.78997 720.12564,637.04714 719.99811,636.282 721.23085,636.282 722.16602,636.282 723.99387,636.49454 724.67399,636.49454 725.43914,636.49454 725.69419,636.23949 725.69419,635.26181 725.69419,634.75171 725.48165,634.45416 724.58898,634.45416 724.12139,634.45416 723.78133,634.49666 722.12351,634.49666 720.72075,634.49666 720.63573,634.45416 720.63573,634.19911 720.63573,633.56149 721.40088,631.56361 721.40088,631.01101 721.40088,630.62844 721.18834,630.50091 720.9758,630.50091 720.29567,630.50091 720.21065,631.05352 718.51033,632.83885 716.63998,634.79422 715.02468,634.75171 715.02468,635.60187 Z"/>
	<path d="M 727.34468,635.34682 C 727.34468,635.7719 727.68475,635.85692 727.93979,635.85692 728.27986,635.85692 728.95999,635.89943 729.85265,635.89943 730.6178,635.89943 730.87285,636.06946 730.87285,636.7921 730.87285,639.21505 728.95999,645.8463 728.95999,649.07691 728.95999,650.90475 729.25754,652.60507 730.53278,652.60507 732.10558,652.60507 734.44352,650.0971 734.44352,650.0971 734.91111,649.587 735.67625,648.14173 735.67625,647.63164 735.67625,647.33408 735.50622,647.16405 735.25117,647.16405 734.65606,647.16405 734.06095,649.37446 732.61567,649.37446 732.19059,649.37446 731.76551,648.82186 731.76551,648.22675 731.76551,647.71665 731.76551,647.80167 733.04075,639.76766 733.38082,637.59975 734.18847,635.94194 734.18847,634.83673 734.18847,634.53917 733.89091,634.36914 733.59336,634.36914 731.1704,634.36914 730.44777,634.75171 728.74745,634.75171 L 728.32237,634.75171 C 727.85478,634.75171 727.34468,634.79422 727.34468,635.34682 Z M 731.85053,626.97275 C 731.85053,627.39783 732.99825,629.22567 733.76339,629.22567 734.14596,629.22567 735.63374,627.82291 735.63374,626.97275 735.63374,626.20761 734.82609,624.71983 733.97593,624.71983 733.21079,624.71983 731.85053,626.59018 731.85053,626.97275 Z"/>
	<path d="M 738.48178,644.99614 C 738.48178,650.18212 741.49984,652.60507 744.9855,652.60507 751.23418,652.60507 754.71983,646.52643 754.71983,641.21293 754.71983,637.21718 752.76446,633.68901 748.51366,633.68901 742.05245,633.68901 738.48178,639.72515 738.48178,644.99614 Z M 741.75489,645.03865 C 741.75489,643.29582 742.17997,641.76553 742.60505,640.27775 743.58274,636.8346 745.87817,634.96425 747.91855,634.96425 749.87392,634.96425 751.57424,636.70708 751.57424,640.70283 751.57424,644.231 750.00144,651.32983 745.45309,651.32983 743.45521,651.32983 741.75489,649.33196 741.75489,645.03865 Z"/>
	<path d="M 756.822,638.53492 C 756.822,639.00251 756.90701,639.34258 757.20457,639.34258 758.13974,639.34258 758.60733,636.96213 759.92508,636.96213 760.35016,636.96213 760.90276,637.81229 760.90276,639.30007 760.90276,642.57318 759.03241,649.16192 759.03241,650.94726 759.03241,652.17999 759.37248,652.26501 760.52019,652.26501 761.6254,652.26501 761.96546,652.09498 762.09299,651.1598 762.178,650.56469 761.88045,651.07478 762.94315,645.3362 763.96334,639.85267 763.45324,640.23524 765.28109,637.64226 766.25877,636.23949 767.06642,635.7719 768.04411,635.7719 770.80713,635.7719 771.01967,638.57743 771.01967,639.25756 771.01967,640.83036 770.127,646.52643 770.127,649.75704 770.127,651.24482 770.84964,652.43504 771.6998,652.43504 773.57015,652.43504 777.31085,649.45948 777.31085,647.80167 777.31085,647.54662 777.22584,647.29157 776.92828,647.29157 776.29066,647.29157 776.12063,647.80167 775.61053,648.43929 775.61053,648.43929 774.63285,649.37446 773.91021,649.37446 773.44262,649.37446 773.10256,649.0344 773.10256,647.84418 773.10256,646.3989 773.8252,641.89306 773.8252,638.9175 773.8252,636.23949 773.23008,633.604 770.25452,633.604 768.46919,633.604 766.21626,635.13428 765.06855,636.02695 763.49575,637.21718 763.1982,638.15235 762.94315,638.15235 762.56058,638.15235 763.45324,633.68901 760.98778,633.68901 759.37248,633.68901 756.822,636.87711 756.822,638.53492 Z"/>
	<path d="M 789.05501,649.16192 C 789.05501,651.62739 791.73302,652.7326 794.24099,652.7326 800.82973,652.7326 805.84567,645.12366 805.84567,639.34258 805.84567,636.57956 804.35789,633.94406 801.16979,633.94406 796.28137,633.94406 794.2835,637.8973 793.68839,637.8973 793.60337,637.8973 793.47585,637.55724 793.47585,637.25968 793.47585,634.19911 796.19636,621.53173 796.19636,620.76658 796.19636,620.29899 795.85629,620.00144 795.38871,620.00144 795.13366,620.00144 794.36851,620.25649 792.7107,620.46903 790.75533,620.72407 789.56511,620.68157 789.56511,621.53173 789.56511,622.12684 789.90517,622.12684 790.37276,622.12684 791.01038,622.12684 791.47797,622.04182 792.11559,622.04182 792.96575,622.04182 793.17829,622.33938 793.17829,622.55192 793.17829,623.57211 792.92324,625.05989 792.54067,626.88773 791.90305,630.03332 791.39295,634.1566 790.62781,638.57743 790.0327,642.02058 789.05501,646.44141 789.05501,649.16192 Z M 791.86054,648.65183 C 791.86054,648.22675 792.32813,643.67839 793.56086,640.32026 794.92112,636.62206 797.68414,636.19698 798.70433,636.19698 801.04227,636.19698 802.87011,638.15235 802.87011,640.5328 802.87011,645.42122 798.95938,651.54237 795.13366,651.54237 792.49816,651.54237 791.86054,650.0971 791.86054,648.65183 Z"/>
	<path d="M 807.49087,657.49349 C 807.49087,659.44886 809.19119,660.00146 811.01903,660.00146 815.01479,660.00146 817.7353,655.15555 819.73317,650.0971 822.24115,643.76341 823.26134,637.8973 823.26134,635.98444 823.26134,634.6667 822.5387,633.73152 821.60353,633.73152 820.58333,633.73152 820.15825,634.53917 820.15825,635.30432 820.15825,636.45203 821.22095,637.30219 821.22095,638.53492 821.22095,641.38296 820.28578,645.93132 819.69067,645.93132 819.22308,645.93132 815.18482,633.85904 811.06154,633.85904 808.46855,633.85904 807.61839,637.55724 807.61839,639.34258 807.61839,640.06521 807.78843,640.27775 808.04347,640.27775 809.31871,640.27775 808.42605,637.08965 810.89151,637.08965 813.14443,637.08965 817.82031,648.05672 817.82031,650.43716 817.82031,652.05247 815.01479,657.49349 812.54932,657.49349 810.59395,657.49349 810.55145,656.09073 808.85113,656.09073 808.12849,656.09073 807.49087,656.77086 807.49087,657.49349 Z"/>
</svg>
